<svg fill="none" xmlns="http://www.w3.org/2000/svg" viewBox="0 0 26 26"><g clip-path="url(#a)"><path d="M12 22.281V13.72L4.5 9.375v8.563L12 22.28Zm2.5 0 7.5-4.343V9.374l-7.5 4.344v8.562Zm-1.25-10.718 7.406-4.282L13.25 3 5.844 7.281l7.406 4.282Zm-10 8.562a2.484 2.484 0 0 1-.922-.906A2.435 2.435 0 0 1 2 17.969V8.03c0-.458.11-.875.328-1.25.219-.375.526-.677.922-.906L12 .844c.396-.23.813-.344 1.25-.344.438 0 .854.115 1.25.344l8.75 5.031c.396.23.703.531.922.906.219.375.328.792.328 1.25v9.938c0 .458-.11.875-.328 1.25a2.485 2.485 0 0 1-.922.906l-8.75 5.031c-.396.23-.813.344-1.25.344-.438 0-.854-.115-1.25-.344l-8.75-5.031Z" fill="#000"/></g><defs><clipPath id="a"><path fill="#fff" transform="translate(.5 .5)" d="M0 0h25v25H0z"/></clipPath></defs></svg>